<svg xmlns="http://www.w3.org/2000/svg" viewBox="0 0 24 24" fill="none" stroke="url(#gradient)" stroke-width="2" stroke-linecap="round" stroke-linejoin="round">
  <defs>
    <linearGradient id="gradient" x1="0%" y1="0%" x2="100%" y2="100%">
      <stop offset="0%" style="stop-color:#8B5CF6;stop-opacity:1" />
      <stop offset="100%" style="stop-color:#EC4899;stop-opacity:1" />
    </linearGradient>
  </defs>
  <circle cx="12" cy="12" r="3"/>
  <path d="M16 8h6a2 2 0 0 1 2 2v6a2 2 0 0 1-2 2h-6"/>
  <path d="M8 8H2a2 2 0 0 0-2 2v6a2 2 0 0 0 2 2h6"/>
  <path d="M8 16v6a2 2 0 0 0 2 2h6a2 2 0 0 0 2-2v-6"/>
  <path d="M16 8v-6a2 2 0 0 0-2-2H8a2 2 0 0 0-2 2v6"/>
</svg> 